<svg width="37" height="36" viewBox="0 0 37 36" fill="none" xmlns="http://www.w3.org/2000/svg">
<path d="M18.1826 30.5L17.6532 30.0707C6.27085 21.0556 3.18262 17.8788 3.18262 12.7273C3.18262 8.43434 6.71203 5 11.1238 5C14.7414 5 16.7709 6.97475 18.1826 8.5202C19.5944 6.97475 21.6238 5 25.2414 5C29.6532 5 33.1826 8.43434 33.1826 12.7273C33.1826 17.8788 30.0944 21.0556 18.712 30.0707L18.1826 30.5ZM11.1238 6.71717C7.68262 6.71717 4.94732 9.37879 4.94732 12.7273C4.94732 17.1061 7.77085 20.0253 18.1826 28.2677C28.5944 20.0253 31.4179 17.1061 31.4179 12.7273C31.4179 9.37879 28.6826 6.71717 25.2414 6.71717C22.1532 6.71717 20.4767 8.5202 19.1532 9.9798L18.1826 11.096L17.212 9.9798C15.8885 8.5202 14.212 6.71717 11.1238 6.71717Z" fill="#5C151A"/>
<path d="M18.1826 30.5L17.6532 30.0707C6.27085 21.0556 3.18262 17.8788 3.18262 12.7273C3.18262 8.43434 6.71203 5 11.1238 5C14.7414 5 16.7709 6.97475 18.1826 8.5202C19.5944 6.97475 21.6238 5 25.2414 5C29.6532 5 33.1826 8.43434 33.1826 12.7273C33.1826 17.8788 30.0944 21.0556 18.712 30.0707L18.1826 30.5ZM11.1238 6.71717C7.68262 6.71717 4.94732 9.37879 4.94732 12.7273C4.94732 17.1061 7.77085 20.0253 18.1826 28.2677C28.5944 20.0253 31.4179 17.1061 31.4179 12.7273C31.4179 9.37879 28.6826 6.71717 25.2414 6.71717C22.1532 6.71717 20.4767 8.5202 19.1532 9.9798L18.1826 11.096L17.212 9.9798C15.8885 8.5202 14.212 6.71717 11.1238 6.71717Z" fill="#5C151A"/>
</svg>
