<svg width="36" height="36" viewBox="0 0 36 36" fill="none" xmlns="http://www.w3.org/2000/svg">
<path fill-rule="evenodd" clip-rule="evenodd" d="M21.366 22.9492C19.354 24.5569 16.8028 25.3331 14.2364 25.1185C11.67 24.9038 9.28314 23.7146 7.56613 21.7949C5.84913 19.8753 4.93228 17.3711 5.0039 14.7965C5.07552 12.222 6.13018 9.7726 7.95125 7.95142C9.77233 6.13024 12.2216 5.07553 14.796 5.0039C17.3704 4.93228 19.8745 5.84917 21.794 7.56628C23.7135 9.28339 24.9027 11.6704 25.1173 14.2369C25.332 16.8035 24.5558 19.3549 22.9481 21.367L30.6437 29.0615C30.7537 29.164 30.8419 29.2876 30.9031 29.4249C30.9643 29.5622 30.9972 29.7105 30.9998 29.8608C31.0025 30.0111 30.9748 30.1604 30.9185 30.2998C30.8622 30.4392 30.7784 30.5658 30.6721 30.6721C30.5658 30.7784 30.4392 30.8622 30.2998 30.9185C30.1604 30.9748 30.0111 31.0025 29.8608 30.9998C29.7105 30.9972 29.5623 30.9643 29.425 30.9031C29.2877 30.8419 29.1641 30.7537 29.0616 30.6437L21.366 22.9492ZM9.5376 20.6177C8.44213 19.522 7.69602 18.1262 7.39357 16.6066C7.09112 15.087 7.2459 13.5119 7.83835 12.0803C8.4308 10.6486 9.43432 9.42475 10.7221 8.56332C12.0099 7.70189 13.5241 7.24156 15.0734 7.24052C16.6227 7.23948 18.1376 7.69776 19.4265 8.55746C20.7154 9.41716 21.7206 10.6397 22.315 12.0705C22.9094 13.5014 23.0663 15.0763 22.7659 16.5963C22.4654 18.1163 21.7212 19.5131 20.6272 20.6102L20.6198 20.6177L20.6123 20.6236C19.1423 22.0903 17.1502 22.9135 15.0737 22.9124C12.9972 22.9113 11.006 22.086 9.5376 20.6177Z" fill="black"/>
<path fill-rule="evenodd" clip-rule="evenodd" d="M21.366 22.9492C19.354 24.5569 16.8028 25.3331 14.2364 25.1185C11.67 24.9038 9.28314 23.7146 7.56613 21.7949C5.84913 19.8753 4.93228 17.3711 5.0039 14.7965C5.07552 12.222 6.13018 9.7726 7.95125 7.95142C9.77233 6.13024 12.2216 5.07553 14.796 5.0039C17.3704 4.93228 19.8745 5.84917 21.794 7.56628C23.7135 9.28339 24.9027 11.6704 25.1173 14.2369C25.332 16.8035 24.5558 19.3549 22.9481 21.367L30.6437 29.0615C30.7537 29.164 30.8419 29.2876 30.9031 29.4249C30.9643 29.5622 30.9972 29.7105 30.9998 29.8608C31.0025 30.0111 30.9748 30.1604 30.9185 30.2998C30.8622 30.4392 30.7784 30.5658 30.6721 30.6721C30.5658 30.7784 30.4392 30.8622 30.2998 30.9185C30.1604 30.9748 30.0111 31.0025 29.8608 30.9998C29.7105 30.9972 29.5623 30.9643 29.425 30.9031C29.2877 30.8419 29.1641 30.7537 29.0616 30.6437L21.366 22.9492ZM9.5376 20.6177C8.44213 19.522 7.69602 18.1262 7.39357 16.6066C7.09112 15.087 7.2459 13.5119 7.83835 12.0803C8.4308 10.6486 9.43432 9.42475 10.7221 8.56332C12.0099 7.70189 13.5241 7.24156 15.0734 7.24052C16.6227 7.23948 18.1376 7.69776 19.4265 8.55746C20.7154 9.41716 21.7206 10.6397 22.315 12.0705C22.9094 13.5014 23.0663 15.0763 22.7659 16.5963C22.4654 18.1163 21.7212 19.5131 20.6272 20.6102L20.6198 20.6177L20.6123 20.6236C19.1423 22.0903 17.1502 22.9135 15.0737 22.9124C12.9972 22.9113 11.006 22.086 9.5376 20.6177Z" fill="black"/>
</svg>
