<svg width="37" height="36" viewBox="0 0 37 36" fill="none" xmlns="http://www.w3.org/2000/svg">
<path fill-rule="evenodd" clip-rule="evenodd" d="M21.5487 22.9492C19.5367 24.5569 16.9854 25.3331 14.419 25.1185C11.8526 24.9038 9.46576 23.7146 7.74875 21.7949C6.03174 19.8753 5.1149 17.3711 5.18652 14.7965C5.25814 12.222 6.31279 9.7726 8.13387 7.95142C9.95494 6.13024 12.4042 5.07553 14.9786 5.0039C17.553 4.93228 20.0571 5.84917 21.9766 7.56628C23.8961 9.28339 25.0853 11.6704 25.2999 14.2369C25.5146 16.8035 24.7384 19.3549 23.1308 21.367L30.8263 29.0615C30.9363 29.164 31.0245 29.2876 31.0857 29.4249C31.1469 29.5622 31.1798 29.7105 31.1824 29.8608C31.1851 30.0111 31.1574 30.1604 31.1011 30.2998C31.0448 30.4392 30.961 30.5658 30.8547 30.6721C30.7485 30.7784 30.6218 30.8622 30.4824 30.9185C30.3431 30.9748 30.1938 31.0025 30.0435 30.9998C29.8932 30.9972 29.7449 30.9643 29.6076 30.9031C29.4703 30.8419 29.3467 30.7537 29.2442 30.6437L21.5487 22.9492ZM9.72021 20.6177C8.62475 19.522 7.87864 18.1262 7.57619 16.6066C7.27374 15.087 7.42852 13.5119 8.02097 12.0803C8.61342 10.6486 9.61694 9.42475 10.9047 8.56332C12.1925 7.70189 13.7067 7.24156 15.256 7.24052C16.8053 7.23948 18.3202 7.69776 19.6091 8.55746C20.8981 9.41716 21.9032 10.6397 22.4976 12.0705C23.092 13.5014 23.2489 15.0763 22.9485 16.5963C22.6481 18.1163 21.9038 19.5131 20.8098 20.6102L20.8024 20.6177L20.7949 20.6236C19.3249 22.0903 17.3328 22.9135 15.2563 22.9124C13.1798 22.9113 11.1887 22.086 9.72021 20.6177Z" fill="#5C151A"/>
<path fill-rule="evenodd" clip-rule="evenodd" d="M21.5487 22.9492C19.5367 24.5569 16.9854 25.3331 14.419 25.1185C11.8526 24.9038 9.46576 23.7146 7.74875 21.7949C6.03174 19.8753 5.1149 17.3711 5.18652 14.7965C5.25814 12.222 6.31279 9.7726 8.13387 7.95142C9.95494 6.13024 12.4042 5.07553 14.9786 5.0039C17.553 4.93228 20.0571 5.84917 21.9766 7.56628C23.8961 9.28339 25.0853 11.6704 25.2999 14.2369C25.5146 16.8035 24.7384 19.3549 23.1308 21.367L30.8263 29.0615C30.9363 29.164 31.0245 29.2876 31.0857 29.4249C31.1469 29.5622 31.1798 29.7105 31.1824 29.8608C31.1851 30.0111 31.1574 30.1604 31.1011 30.2998C31.0448 30.4392 30.961 30.5658 30.8547 30.6721C30.7485 30.7784 30.6218 30.8622 30.4824 30.9185C30.3431 30.9748 30.1938 31.0025 30.0435 30.9998C29.8932 30.9972 29.7449 30.9643 29.6076 30.9031C29.4703 30.8419 29.3467 30.7537 29.2442 30.6437L21.5487 22.9492ZM9.72021 20.6177C8.62475 19.522 7.87864 18.1262 7.57619 16.6066C7.27374 15.087 7.42852 13.5119 8.02097 12.0803C8.61342 10.6486 9.61694 9.42475 10.9047 8.56332C12.1925 7.70189 13.7067 7.24156 15.256 7.24052C16.8053 7.23948 18.3202 7.69776 19.6091 8.55746C20.8981 9.41716 21.9032 10.6397 22.4976 12.0705C23.092 13.5014 23.2489 15.0763 22.9485 16.5963C22.6481 18.1163 21.9038 19.5131 20.8098 20.6102L20.8024 20.6177L20.7949 20.6236C19.3249 22.0903 17.3328 22.9135 15.2563 22.9124C13.1798 22.9113 11.1887 22.086 9.72021 20.6177Z" fill="#5C151A"/>
</svg>
