<svg width="26" height="26" viewBox="0 0 26 26" fill="none" xmlns="http://www.w3.org/2000/svg">
<path fill-rule="evenodd" clip-rule="evenodd" d="M16.366 17.9492C14.354 19.5569 11.8028 20.3331 9.2364 20.1185C6.66997 19.9038 4.28314 18.7146 2.56613 16.7949C0.849126 14.8753 -0.0677208 12.3711 0.00390116 9.79654C0.0755231 7.222 1.13018 4.7726 2.95125 2.95142C4.77233 1.13024 7.22158 0.0755274 9.79597 0.00390138C12.3704 -0.0677247 14.8745 0.849174 16.794 2.56628C18.7135 4.28339 19.9027 6.67035 20.1173 9.23693C20.332 11.8035 19.5558 14.3549 17.9481 16.367L25.6437 24.0615C25.7537 24.164 25.8419 24.2876 25.9031 24.4249C25.9643 24.5622 25.9972 24.7105 25.9998 24.8608C26.0025 25.0111 25.9748 25.1604 25.9185 25.2998C25.8622 25.4392 25.7784 25.5658 25.6721 25.6721C25.5658 25.7784 25.4392 25.8622 25.2998 25.9185C25.1604 25.9748 25.0111 26.0025 24.8608 25.9998C24.7105 25.9972 24.5623 25.9643 24.425 25.9031C24.2877 25.8419 24.1641 25.7537 24.0616 25.6437L16.366 17.9492ZM4.5376 15.6177C3.44213 14.522 2.69602 13.1262 2.39357 11.6066C2.09112 10.087 2.2459 8.5119 2.83835 7.08026C3.4308 5.64862 4.43432 4.42475 5.7221 3.56332C7.00988 2.70189 8.52411 2.24156 10.0734 2.24052C11.6227 2.23948 13.1376 2.69776 14.4265 3.55746C15.7154 4.41716 16.7206 5.63968 17.315 7.07052C17.9094 8.50136 18.0663 10.0763 17.7659 11.5963C17.4654 13.1163 16.7212 14.5131 15.6272 15.6102L15.6198 15.6177L15.6123 15.6236C14.1423 17.0903 12.1502 17.9135 10.0737 17.9124C7.9972 17.9113 6.00604 17.086 4.5376 15.6177Z" fill="white"/>
</svg>
